<?xml version="1.0" standalone="no"?>
<!DOCTYPE svg PUBLIC "-//W3C//DTD SVG 20010904//EN"
 "http://www.w3.org/TR/2001/REC-SVG-20010904/DTD/svg10.dtd">
<svg version="1.0" xmlns="http://www.w3.org/2000/svg"
 width="1080.000000pt" height="376.000000pt" viewBox="0 0 1080.000000 376.000000"
 preserveAspectRatio="xMidYMid meet">

<g transform="translate(0.000000,376.000000) scale(0.100000,-0.100000)"
fill="#000000" stroke="none">
<path d="M6915 3212 c-67 -23 -139 -92 -156 -152 -18 -63 -15 -176 6 -225 l17
-40 21 40 c43 86 114 125 227 125 41 0 95 -5 120 -11 113 -26 245 -117 300
-208 29 -47 36 -50 51 -17 10 20 4 35 -45 112 -31 49 -66 118 -77 154 -39 127
-88 184 -192 220 -70 25 -199 26 -272 2z"/>
<path d="M7480 3108 c0 -92 4 -119 21 -154 24 -51 96 -124 115 -117 21 8 44
68 44 115 0 60 -48 154 -110 218 -27 28 -53 50 -59 50 -7 0 -11 -39 -11 -112z"/>
<path d="M8055 2873 c-77 -14 -143 -28 -146 -31 -4 -4 -8 -324 -10 -712 l-4
-705 175 0 175 0 2 325 c2 220 6 334 14 353 21 50 93 72 137 41 50 -35 52 -49
52 -404 l0 -330 166 0 165 0 -3 408 c-4 466 -4 463 -89 557 -59 64 -120 89
-219 88 -75 0 -137 -23 -191 -70 l-34 -31 3 269 3 269 -28 -1 c-15 0 -91 -12
-168 -26z"/>
<path d="M7525 2698 c-35 -35 -158 -129 -195 -148 -14 -8 -41 -16 -60 -20
l-35 -6 3 -72 c3 -43 0 -72 -6 -72 -12 0 -22 24 -22 51 0 16 -7 19 -48 19 -63
0 -128 -34 -167 -88 -16 -22 -34 -41 -38 -41 -5 -1 -7 29 -6 67 3 62 2 67 -16
65 -165 -15 -270 -26 -272 -27 -8 -7 -15 -996 -7 -996 5 0 77 -2 159 -3 l150
-2 5 280 c6 307 10 328 68 377 34 29 99 43 135 29 14 -6 28 -7 31 -4 3 4 6 39
6 80 0 56 3 73 14 73 8 0 17 -7 20 -16 3 -9 6 -126 6 -260 0 -328 19 -421 102
-503 46 -45 93 -68 173 -82 96 -16 225 2 263 38 8 8 12 48 12 127 0 108 -1
116 -19 116 -11 0 -23 -4 -26 -10 -3 -5 -26 -10 -50 -10 -61 0 -95 31 -106 96
-9 57 -12 445 -3 468 5 13 23 16 90 16 l85 0 -3 108 -3 107 -91 3 -92 3 -6 62
c-4 34 -7 92 -7 130 -1 37 -4 69 -8 71 -3 2 -20 -9 -36 -26z"/>
<path d="M8960 2714 c-53 -23 -83 -67 -88 -130 -4 -50 -2 -56 30 -88 38 -38
100 -54 162 -42 48 9 103 74 112 132 15 104 -105 176 -216 128z"/>
<path d="M1924 2683 c-38 -5 -26 34 -181 -573 -35 -140 -85 -329 -110 -420
-75 -278 -73 -264 -60 -272 7 -5 82 -7 167 -5 l155 2 25 95 25 95 176 3 176 2
28 -100 c15 -55 30 -102 34 -104 8 -4 333 13 348 19 10 3 9 13 -2 44 -7 22
-34 123 -59 225 -26 102 -74 284 -107 403 -63 224 -123 449 -143 538 l-11 50
-215 1 c-118 1 -229 -1 -246 -3z m220 -473 c10 -36 22 -76 27 -90 19 -56 49
-182 45 -189 -6 -8 -152 -14 -165 -6 -5 3 -1 42 9 87 9 46 25 127 35 181 9 55
20 95 24 90 4 -4 16 -37 25 -73z"/>
<path d="M3516 2511 c-92 -73 -148 -85 -306 -64 -223 30 -371 -36 -456 -203
-36 -72 -39 -83 -39 -163 0 -74 4 -94 28 -144 16 -31 37 -62 48 -67 26 -14 24
-23 -15 -74 -45 -59 -62 -129 -45 -185 14 -46 64 -97 112 -114 l30 -10 -39
-21 c-66 -35 -105 -69 -131 -114 -23 -38 -25 -51 -21 -111 15 -202 208 -331
450 -300 92 11 126 23 198 66 79 47 154 124 186 191 38 80 45 206 15 275 -29
67 -67 114 -115 142 -54 31 -88 36 -239 38 -111 2 -129 5 -154 23 -64 48 -35
84 69 84 146 1 263 41 335 118 72 76 98 229 55 324 -11 26 -18 49 -14 51 4 3
24 10 44 16 20 7 42 18 48 26 17 20 33 200 20 225 -14 26 -20 25 -64 -9z
m-347 -290 c68 -73 67 -222 -1 -288 -23 -22 -39 -28 -75 -28 -39 0 -49 4 -74
34 -48 58 -59 171 -23 243 36 72 124 92 173 39z m33 -901 c52 -15 66 -44 43
-86 -36 -66 -159 -85 -253 -38 -76 38 -85 91 -20 119 39 17 176 20 230 5z"/>
<path d="M6143 2460 c-28 -5 -75 -19 -105 -30 -57 -23 -168 -90 -168 -103 0
-10 82 -140 94 -149 5 -3 23 2 40 11 38 22 114 41 159 41 49 0 87 -33 87 -75
0 -37 9 -32 -150 -85 -177 -59 -268 -133 -304 -246 -21 -65 -18 -67 -45 34
-18 64 -61 104 -181 171 -132 74 -170 105 -170 137 0 58 121 84 208 44 l43
-19 34 73 c56 120 56 120 -8 150 -31 14 -79 31 -108 37 -68 15 -230 6 -291
-16 -151 -54 -236 -244 -179 -397 30 -78 109 -150 242 -218 56 -29 113 -63
126 -76 47 -47 16 -114 -52 -114 -46 0 -92 20 -161 69 -31 22 -61 38 -68 35
-13 -5 -116 -187 -116 -205 0 -16 160 -87 244 -109 164 -41 272 -18 366 80 51
52 63 74 85 158 8 27 25 20 25 -11 0 -12 11 -45 24 -74 65 -139 202 -195 346
-142 92 34 94 34 87 16 -9 -24 12 -27 169 -27 l145 0 -3 438 -3 439 -30 49
c-24 40 -43 55 -97 83 -56 28 -79 34 -150 37 -46 1 -106 -1 -135 -6z m107
-685 l0 -125 -64 0 c-83 0 -96 12 -96 88 0 31 6 64 13 73 15 20 118 88 135 88
9 1 12 -30 12 -124z"/>
<path d="M4035 2441 c-22 -10 -56 -35 -74 -55 -19 -20 -39 -36 -43 -36 -4 0
-8 23 -8 50 l0 50 -37 0 c-21 0 -88 -3 -149 -6 l-111 -7 -7 -151 c-3 -83 -7
-308 -7 -500 -2 -319 0 -350 15 -358 11 -6 73 -7 157 -3 l140 8 -2 286 c-3
309 -2 315 53 374 38 41 118 86 164 93 l44 6 1 102 c1 55 2 115 3 131 1 29 0
30 -49 33 -33 1 -64 -4 -90 -17z"/>
<path d="M4537 2449 c-220 -32 -380 -278 -364 -558 10 -172 60 -283 170 -371
130 -106 309 -126 456 -50 97 49 186 169 227 306 23 74 25 265 5 339 -36 131
-120 249 -212 295 -44 23 -157 50 -199 49 -14 -1 -51 -5 -83 -10z m119 -284
c47 -50 59 -100 59 -245 -1 -107 -4 -132 -22 -172 -43 -94 -130 -100 -176 -14
-19 37 -21 57 -21 186 0 81 6 163 12 186 29 99 88 122 148 59z"/>
<path d="M9000 2441 l-145 -6 0 -510 0 -510 160 0 160 0 0 515 c0 451 -2 515
-15 515 -8 1 -80 -1 -160 -4z"/>
<path d="M5425 1130 c-3 -6 -1 -26 6 -45 12 -31 11 -36 -5 -48 -16 -12 -16
-14 -2 -26 9 -8 16 -19 16 -27 0 -20 21 -28 31 -13 19 31 1 129 -24 129 -5 0
-7 7 -4 15 7 17 -9 30 -18 15z"/>
<path d="M10713 1122 c-7 -5 -15 -21 -17 -38 -8 -56 -35 -157 -45 -167 -6 -6
-11 -21 -11 -33 0 -12 -5 -24 -11 -26 -25 -8 -27 -153 -3 -180 10 -10 13 -22
8 -30 -5 -8 2 -6 19 5 14 9 34 17 44 17 9 0 36 21 60 47 l43 46 0 152 0 152
-41 13 c-31 11 -39 18 -36 32 6 21 6 20 -10 10z"/>
<path d="M10254 1112 c-35 -26 -41 -92 -16 -202 8 -36 8 -50 -4 -67 -8 -13
-11 -23 -8 -23 4 0 -1 -9 -11 -20 -11 -13 -15 -27 -11 -44 7 -28 -13 -81 -59
-151 -17 -27 -38 -66 -45 -85 -8 -19 -16 -37 -19 -40 -17 -15 -110 -203 -136
-274 -10 -27 -25 -56 -35 -66 -9 -9 -20 -35 -24 -56 -4 -22 -10 -49 -13 -62
-5 -22 -3 -22 82 -22 53 0 84 4 80 10 -3 5 1 24 10 41 15 27 21 30 46 25 36
-7 40 1 70 151 16 81 18 112 10 125 -12 19 -5 48 11 48 18 0 37 33 38 63 0 15
4 35 9 45 6 9 20 64 31 122 12 58 26 118 31 134 5 16 9 42 9 58 0 16 5 39 11
50 13 24 -4 41 -34 34 -11 -3 -17 0 -14 7 2 7 16 12 30 13 14 1 24 -3 21 -7
-3 -5 -1 -9 4 -9 10 0 37 109 28 117 -3 3 -8 -6 -12 -21 -8 -34 -24 -23 -24
18 0 35 -40 99 -56 88z"/>
<path d="M10321 1054 c0 -11 3 -14 6 -6 3 7 2 16 -1 19 -3 4 -6 -2 -5 -13z"/>
<path d="M5845 1005 c-10 -25 -24 -45 -32 -45 -7 0 -13 -4 -13 -9 0 -5 -7 -11
-14 -14 -11 -4 -13 -1 -9 10 4 11 3 14 -6 9 -6 -4 -9 -16 -6 -27 4 -10 2 -19
-3 -19 -5 0 -12 -48 -17 -107 -4 -60 -8 -119 -10 -133 -3 -32 25 -81 45 -78
11 2 16 19 18 63 2 32 8 65 14 73 7 8 11 43 9 88 -2 63 1 78 21 105 16 23 19
33 11 36 -20 7 -15 21 9 25 13 2 26 15 34 33 11 29 11 31 -10 33 -17 1 -26 -8
-41 -43z"/>
<path d="M9680 1015 c0 -14 -4 -25 -9 -25 -5 0 -9 -20 -9 -45 0 -25 4 -45 9
-45 5 0 9 -6 9 -14 0 -8 6 -16 14 -19 8 -3 17 -29 22 -59 9 -62 6 -90 -10
-100 -14 -10 -41 -5 -39 8 1 5 -9 14 -21 20 l-23 11 -7 -316 c-4 -174 -9 -342
-12 -373 l-6 -58 65 0 65 0 7 98 c5 53 9 160 11 237 3 207 13 367 23 379 12
15 11 256 -1 279 -5 9 -18 17 -28 17 -11 0 -20 7 -20 15 0 8 -9 15 -20 15 -15
0 -20 -7 -20 -25z"/>
<path d="M10450 985 c0 -20 -5 -45 -10 -55 -6 -10 -15 -45 -20 -77 -5 -32 -16
-98 -24 -147 -9 -50 -18 -96 -21 -104 -3 -8 -10 -42 -15 -76 -12 -75 -25 -135
-35 -158 -5 -13 -2 -18 9 -18 9 0 16 7 16 15 0 8 6 15 13 15 7 0 22 10 33 23
11 12 33 34 49 48 39 33 59 67 47 82 -5 7 -15 45 -22 84 -11 60 -11 80 0 112
7 22 10 47 7 55 -4 9 -2 16 2 16 9 0 31 53 31 73 0 5 -10 7 -22 4 l-23 -6 23
19 c17 14 22 28 20 53 -2 38 -28 47 -28 10 0 -13 -4 -22 -9 -18 -5 3 -7 20 -4
39 3 19 1 36 -6 40 -7 5 -11 -5 -11 -29z"/>
<path d="M10100 934 c-11 -12 -10 -18 4 -32 16 -16 18 -16 31 2 11 14 12 23 4
33 -15 17 -24 16 -39 -3z"/>
<path d="M9100 896 c0 -2 7 -19 16 -37 11 -25 14 -27 10 -9 -3 14 -6 31 -6 38
0 6 -4 12 -10 12 -5 0 -10 -2 -10 -4z"/>
<path d="M1454 856 c-10 -25 -8 -51 10 -214 14 -117 17 -212 14 -398 l-3 -244
46 0 46 0 7 133 c4 72 10 162 12 199 3 44 0 76 -8 90 -6 13 -13 28 -14 33 -1
6 -4 21 -7 35 -27 130 -37 187 -47 260 -7 47 -15 91 -19 99 -11 22 -30 25 -37
7z"/>
<path d="M720 831 c0 -21 -5 -31 -15 -31 -8 0 -14 -3 -13 -7 1 -5 -5 -21 -12
-38 -25 -59 -40 -131 -40 -193 0 -34 -10 -99 -21 -145 -24 -93 -22 -170 8
-327 l17 -90 52 0 c42 0 54 4 58 18 16 58 20 137 21 394 0 216 3 290 13 299
16 17 15 46 -2 52 -8 3 -18 25 -23 49 -11 53 -43 68 -43 19z"/>
<path d="M2097 854 c-6 -11 -12 -32 -42 -159 -10 -38 -23 -83 -30 -100 -7 -16
-19 -46 -27 -65 -28 -65 -37 -105 -44 -197 -5 -68 -3 -93 5 -93 6 0 14 8 17
18 6 16 17 42 111 257 57 131 73 240 41 282 -5 6 -13 24 -17 39 -4 16 -10 23
-14 18z"/>
<path d="M8142 842 c-30 -5 -45 -45 -36 -97 8 -52 21 -75 40 -75 12 0 15 -6
11 -22 -3 -13 -9 -41 -13 -63 -6 -36 -32 -75 -50 -75 -17 0 -33 -39 -33 -80 0
-49 16 -139 18 -103 0 12 13 31 27 42 26 20 28 20 40 3 7 -10 20 -42 29 -72 9
-30 27 -90 41 -132 13 -43 24 -88 24 -100 0 -52 11 -68 44 -68 l31 0 -1 113
c-1 113 -21 287 -33 287 -4 0 -11 -12 -17 -27 l-9 -27 -19 29 c-26 40 -33 142
-12 183 15 29 13 62 -3 62 -4 0 -8 15 -8 33 -1 17 -4 48 -7 67 -4 19 -9 54
-12 77 -5 43 -14 51 -52 45z"/>
<path d="M6720 821 c0 -11 6 -22 13 -24 10 -4 10 -6 0 -6 -8 -1 -13 -17 -13
-45 0 -30 -5 -46 -15 -50 -8 -3 -20 -17 -27 -31 -6 -14 -17 -25 -25 -25 -7 0
-13 -6 -13 -14 0 -8 -4 -16 -10 -18 -13 -4 -40 -129 -40 -186 0 -35 4 -44 25
-54 19 -8 22 -15 15 -28 -5 -10 -7 -20 -4 -23 3 -3 -2 -19 -10 -36 -9 -16 -16
-49 -16 -71 0 -23 -5 -51 -12 -63 -6 -12 -13 -39 -14 -60 -1 -21 -5 -49 -8
-63 -6 -22 -4 -24 34 -24 35 0 42 4 51 27 5 15 12 49 13 76 5 58 29 90 63 81
27 -7 39 -54 21 -83 -7 -12 -16 -21 -20 -21 -5 0 -8 -18 -8 -40 l0 -40 44 0
44 0 -3 208 c-1 114 -6 253 -10 309 -6 74 -4 111 5 132 10 26 10 33 -4 46 -9
9 -19 28 -22 43 -3 15 -9 36 -14 47 -4 11 -11 28 -14 38 -7 23 -26 22 -26 -2z"/>
<path d="M10026 831 c-4 -7 -5 -15 -2 -18 9 -9 19 4 14 18 -4 11 -6 11 -12 0z"/>
<path d="M9460 819 c0 -5 5 -7 10 -4 6 3 10 8 10 11 0 2 -4 4 -10 4 -5 0 -10
-5 -10 -11z"/>
<path d="M7041 811 c-1 -7 -7 -11 -15 -8 -17 7 -35 -52 -32 -107 1 -21 -5 -71
-13 -110 -7 -39 -17 -145 -20 -236 -5 -125 -10 -174 -23 -200 -18 -38 -21 -54
-19 -112 l1 -38 65 0 c36 0 65 2 65 5 0 3 9 38 19 78 10 39 22 94 26 122 4 27
15 67 25 90 25 56 39 122 46 212 3 43 7 91 9 106 3 18 0 27 -8 26 -26 -3 -47
1 -47 11 0 6 -9 19 -19 29 -11 11 -25 39 -31 63 -13 52 -28 88 -29 69z"/>
<path d="M3770 760 c-6 -22 -9 -44 -6 -49 3 -5 -2 -35 -11 -67 -8 -33 -17 -70
-18 -84 -4 -44 -5 -45 -17 -25 -10 17 -19 66 -31 180 -3 28 -16 47 -28 39 -6
-3 -8 -18 -6 -32 2 -15 2 -21 0 -14 -8 24 -22 11 -28 -25 -3 -21 -8 -49 -12
-63 -3 -14 -7 -51 -10 -82 -4 -48 -2 -58 11 -58 9 0 16 -4 16 -8 0 -4 15 -24
33 -44 17 -19 45 -63 61 -96 16 -34 35 -63 43 -66 7 -3 13 -15 13 -26 0 -13 4
-18 11 -14 7 4 8 19 4 38 -3 17 -6 48 -5 69 0 21 -4 45 -8 54 -6 10 -3 34 9
69 16 44 18 73 14 166 -2 62 -5 128 -5 146 0 45 -17 40 -30 -8z"/>
<path d="M8413 793 c-7 -2 -13 -11 -13 -19 0 -8 -7 -14 -15 -14 -17 0 -21 -41
-6 -68 5 -9 11 -42 14 -72 8 -73 28 -160 39 -160 4 0 13 9 20 20 15 24 60 27
78 5 7 -8 16 -15 21 -15 16 0 10 187 -6 227 -8 19 -15 51 -15 69 0 29 -3 34
-24 34 -13 0 -26 -6 -29 -12 -4 -10 -7 -10 -18 0 -14 12 -25 14 -46 5z"/>
<path d="M9440 771 c0 -6 4 -13 10 -16 6 -3 7 1 4 9 -7 18 -14 21 -14 7z"/>
<path d="M8777 763 c-13 -12 -7 -43 8 -43 9 0 15 9 15 25 0 24 -10 32 -23 18z"/>
<path d="M9990 733 c0 -10 -3 -29 -6 -43 -5 -17 -3 -22 4 -15 15 15 26 75 13
75 -6 0 -11 -8 -11 -17z"/>
<path d="M7391 708 c-11 -13 -29 -34 -40 -47 -12 -13 -21 -32 -21 -42 0 -9 -5
-19 -10 -21 -6 -2 -13 -23 -16 -48 -3 -25 -9 -60 -14 -79 -6 -21 -6 -41 0 -51
7 -13 5 -22 -5 -30 -13 -11 -11 -17 15 -43 29 -30 30 -30 45 -11 10 13 14 44
15 97 0 102 24 153 75 163 19 3 38 10 41 15 13 22 -34 119 -58 119 -5 0 -17
-10 -27 -22z"/>
<path d="M4115 668 c-13 -88 -13 -92 4 -115 9 -12 24 -23 34 -23 26 0 24 97
-4 150 -12 22 -22 40 -24 40 -1 0 -6 -24 -10 -52z"/>
<path d="M7200 680 c0 -5 5 -10 11 -10 5 0 7 5 4 10 -3 6 -8 10 -11 10 -2 0
-4 -4 -4 -10z"/>
<path d="M9216 668 c12 -19 6 -66 -27 -221 -26 -126 -79 -417 -79 -439 0 -4
45 -8 100 -8 l100 0 0 43 c-1 84 -31 353 -61 537 -14 86 -18 100 -30 100 -6 0
-7 -5 -3 -12z"/>
<path d="M9956 610 c-15 -38 -23 -110 -10 -98 11 12 42 128 34 133 -4 3 -15
-13 -24 -35z"/>
<path d="M7607 612 c-15 -15 -27 -31 -27 -34 0 -4 -21 -42 -46 -85 -46 -76
-46 -79 -35 -121 11 -42 6 -74 -26 -152 -3 -8 -7 -31 -9 -50 -3 -19 -8 -44
-14 -55 -5 -11 -10 -41 -12 -68 l-3 -47 76 0 76 0 7 40 c5 31 12 43 32 50 14
6 27 10 29 10 3 0 14 -22 26 -50 l21 -50 124 0 123 0 -6 57 c-2 32 -9 82 -14
112 -5 30 -9 72 -9 92 0 38 -32 189 -45 209 -10 16 -55 12 -55 -4 0 -8 -14
-37 -32 -63 -17 -26 -32 -49 -32 -49 -1 -1 -11 -5 -24 -9 -17 -5 -29 0 -51 24
-28 29 -29 35 -30 137 -1 130 -7 145 -44 106z"/>
<path d="M5952 557 c-15 -33 -27 -47 -40 -47 -23 0 -46 -25 -37 -40 3 -5 12
-10 20 -10 8 0 18 -6 22 -13 4 -8 16 -16 25 -20 19 -7 20 -3 33 78 4 22 11 45
16 51 5 6 3 18 -5 29 -12 17 -15 15 -34 -28z"/>
<path d="M8906 584 c-3 -9 -6 -25 -6 -36 0 -10 -6 -26 -14 -33 -9 -10 -12 -28
-8 -61 3 -33 1 -49 -9 -56 -11 -7 -11 -11 -1 -15 6 -2 12 -13 12 -24 0 -10 5
-19 10 -19 6 0 10 14 10 30 0 19 5 30 14 30 21 0 29 51 21 131 -7 67 -17 85
-29 53z"/>
<path d="M5274 571 c3 -5 -6 -8 -20 -8 -49 0 -53 -20 -53 -249 0 -120 -5 -223
-11 -238 -5 -15 -10 -38 -10 -52 0 -21 4 -24 41 -24 37 0 41 3 56 37 10 26 12
38 4 41 -12 4 -14 53 -5 90 4 15 14 22 30 22 18 0 24 -7 30 -34 3 -19 3 -39 0
-44 -3 -5 6 -22 19 -38 14 -16 25 -39 25 -51 0 -21 5 -23 51 -23 l52 0 -8 157
c-7 154 -15 203 -34 203 -5 0 -24 -13 -41 -29 -28 -25 -37 -28 -62 -20 -32 9
-57 35 -58 59 0 8 7 40 15 70 17 65 19 120 4 120 -5 0 -7 5 -4 10 3 6 -1 10
-10 10 -9 0 -14 -4 -11 -9z"/>
<path d="M10744 556 c-3 -8 -23 -26 -44 -40 -35 -23 -224 -206 -260 -252 -8
-10 -14 -25 -12 -34 2 -11 1 -12 -6 -2 -11 17 -55 1 -75 -28 -8 -11 -18 -20
-23 -19 -34 8 -56 -35 -79 -149 l-7 -32 61 0 c51 0 61 3 66 20 9 28 61 28 70
0 6 -19 15 -20 165 -20 l158 0 7 103 c9 127 11 311 6 395 -4 62 -16 87 -27 58z"/>
<path d="M2891 528 c-8 -18 -15 -41 -16 -50 -1 -10 -10 -29 -19 -43 -22 -34
-55 -30 -76 10 -8 17 -18 31 -22 33 -4 2 -5 9 -2 17 3 7 0 16 -6 20 -8 5 -10
-19 -7 -91 7 -145 29 -374 37 -374 14 0 99 128 110 167 7 24 21 50 32 59 16
15 18 33 18 141 0 80 -4 123 -11 123 -5 0 -7 5 -4 10 3 6 0 10 -7 10 -8 0 -20
-15 -27 -32z"/>
<path d="M6393 535 c-25 -10 -33 -21 -37 -47 -9 -60 -26 -302 -26 -365 0 -62
0 -63 35 -77 19 -8 35 -22 35 -30 0 -13 12 -16 55 -16 39 0 55 4 55 13 0 8 8
39 18 69 12 37 16 63 10 78 -5 13 -9 35 -10 49 -1 14 -12 36 -25 48 -14 14
-23 34 -23 53 0 17 -5 41 -12 53 -6 12 -14 55 -18 95 -4 40 -11 77 -16 82 -5
5 -23 3 -41 -5z"/>
<path d="M2437 523 c-15 -4 -18 -11 -13 -31 4 -15 11 -59 16 -99 10 -66 15
-95 39 -205 5 -21 25 -71 45 -113 34 -70 39 -75 68 -75 l31 0 -7 127 c-6 128
-24 329 -32 370 -5 27 -38 23 -67 -8 -13 -14 -22 -18 -25 -11 -2 7 -8 10 -13
6 -5 -3 -9 6 -9 20 0 14 -3 25 -7 25 -5 -1 -16 -3 -26 -6z"/>
<path d="M4140 490 c0 -5 5 -10 10 -10 6 0 10 5 10 10 0 6 -4 10 -10 10 -5 0
-10 -4 -10 -10z"/>
<path d="M966 464 c-11 -27 -7 -37 9 -24 16 14 20 40 6 40 -5 0 -12 -7 -15
-16z"/>
<path d="M4945 436 c-11 -6 -21 -12 -23 -12 -1 -1 -7 -30 -13 -65 -6 -35 -14
-66 -18 -69 -13 -9 -71 -130 -71 -148 0 -10 6 -27 14 -37 8 -11 12 -24 11 -30
-2 -5 -6 -25 -9 -42 -5 -33 -5 -33 34 -33 45 0 51 15 25 60 -23 40 -18 70 18
101 38 34 44 35 52 9 12 -37 22 -21 30 48 13 103 12 175 -2 180 -7 2 -13 12
-13 22 0 25 -11 30 -35 16z m28 -221 c4 -8 3 -16 -1 -19 -13 -8 -35 11 -28 23
10 15 23 14 29 -4z"/>
<path d="M8715 433 c-3 -10 -13 -61 -21 -113 -18 -120 -30 -158 -61 -186 -20
-19 -25 -34 -27 -76 l-1 -53 158 -3 c152 -2 158 -2 153 16 -4 11 -7 37 -8 58
0 22 -7 54 -16 72 -11 25 -12 36 -3 45 6 6 11 29 10 52 -1 35 -2 37 -9 15 -7
-21 -8 -18 -9 19 l-1 43 -19 -23 -19 -24 -17 40 c-10 22 -17 50 -16 63 0 13
-3 20 -9 17 -6 -3 -10 2 -10 12 0 40 -61 61 -75 26z"/>
<path d="M4425 418 c-5 -17 -14 -62 -27 -130 -9 -46 -15 -58 -29 -58 -26 0
-24 -13 3 -25 24 -11 30 -21 77 -125 l29 -65 7 66 c16 153 5 299 -26 330 -22
22 -28 23 -34 7z"/>
<path d="M3582 363 c2 -21 8 -38 13 -37 6 1 18 -12 27 -27 23 -38 29 -37 22 4
-7 34 -43 97 -57 97 -5 0 -7 -17 -5 -37z"/>
<path d="M5950 386 c0 -9 5 -16 10 -16 6 0 10 4 10 9 0 6 -4 13 -10 16 -5 3
-10 -1 -10 -9z"/>
<path d="M8438 327 c1 -40 5 -87 8 -105 4 -28 7 -31 24 -22 29 15 61 85 67
145 l6 52 -54 1 -54 0 3 -71z"/>
<path d="M9007 373 c-11 -10 -8 -53 3 -53 6 0 10 14 10 30 0 31 -2 35 -13 23z"/>
<path d="M950 360 c0 -5 5 -10 10 -10 6 0 10 5 10 10 0 6 -4 10 -10 10 -5 0
-10 -4 -10 -10z"/>
<path d="M2240 357 c0 -10 -7 -13 -19 -10 -17 4 -19 -2 -21 -74 -3 -117 -12
-167 -32 -171 -17 -3 -68 45 -68 64 0 6 -6 17 -14 23 -12 10 -20 1 -46 -53
-29 -59 -31 -69 -20 -101 l12 -35 93 0 c100 0 105 3 105 56 0 13 5 24 10 24 6
0 10 13 10 29 0 40 10 66 20 50 4 -6 5 9 3 35 -4 28 -1 56 6 69 9 18 9 30 -3
59 -17 40 -36 58 -36 35z"/>
<path d="M4574 335 c-3 -14 -4 -51 0 -83 3 -31 8 -101 12 -154 l7 -98 39 0
c43 0 50 18 22 58 -8 12 -10 22 -5 22 6 0 11 10 11 23 0 12 9 28 20 35 45 28
9 202 -44 216 -41 11 -56 6 -62 -19z"/>
<path d="M4308 333 c-3 -10 1 -36 8 -58 l13 -40 -6 55 c-6 62 -9 68 -15 43z"/>
<path d="M9479 333 c-2 -18 -4 -24 -18 -58 -9 -22 -39 -223 -41 -272 0 -2 29
-3 65 -3 52 0 65 3 65 15 0 13 -7 15 -34 10 -28 -6 -36 -3 -50 16 -20 29 -20
50 -1 75 15 19 16 18 40 -10 15 -15 29 -25 32 -22 12 11 -19 190 -38 226 -10
19 -19 29 -20 23z"/>
<path d="M5944 298 c3 -13 6 -31 6 -40 0 -10 5 -18 10 -18 6 0 10 18 10 40 0
30 -4 40 -16 40 -12 0 -15 -6 -10 -22z"/>
<path d="M6190 271 c-9 -18 -9 -25 0 -31 6 -4 11 -10 11 -14 -3 -24 2 -26 9
-3 5 16 5 38 1 50 l-8 21 -13 -23z"/>
<path d="M1073 245 c-17 -19 -16 -28 2 -21 12 4 15 -3 15 -29 0 -31 15 -60 18
-32 0 7 3 21 6 32 4 12 -1 29 -11 42 -15 18 -20 19 -30 8z"/>
<path d="M4308 224 c-13 -13 -9 -42 7 -47 8 -4 17 -2 20 3 4 6 2 10 -4 10 -5
0 -11 9 -13 21 -2 11 -6 17 -10 13z"/>
<path d="M3643 210 c-13 -6 -23 -18 -23 -30 0 -11 -6 -20 -14 -20 -18 0 -46
-60 -46 -98 0 -57 6 -62 81 -62 76 0 80 4 57 66 -10 28 -9 36 5 52 19 21 22
42 7 42 -5 0 -10 8 -10 18 0 17 -18 43 -29 41 -4 0 -16 -4 -28 -9z"/>
<path d="M5757 213 c-4 -3 -7 -13 -7 -21 0 -12 3 -12 15 -2 8 7 15 16 15 21 0
11 -14 12 -23 2z"/>
<path d="M6180 182 c-20 -7 -44 -32 -31 -32 6 0 11 -11 11 -25 0 -19 -5 -25
-17 -23 -12 2 -18 -3 -17 -14 1 -10 -4 -18 -11 -18 -14 0 -27 -24 -30 -53 -2
-14 6 -17 46 -17 53 0 48 -8 67 93 12 57 4 96 -18 89z"/>
<path d="M998 174 c-3 -5 -2 -20 2 -34 6 -21 8 -22 14 -8 8 18 -8 57 -16 42z"/>
<path d="M7189 153 c-9 -15 -20 -46 -23 -67 -4 -21 -14 -50 -23 -62 -15 -23
-14 -24 10 -24 22 0 25 4 23 33 -1 28 2 32 24 32 22 0 25 4 22 32 -2 17 -6 43
-10 58 l-7 26 -16 -28z"/>
<path d="M477 139 c-11 -39 -8 -59 8 -59 8 0 15 -4 15 -10 0 -5 5 -10 10 -10
15 0 11 31 -9 69 -18 33 -18 33 -24 10z"/>
<path d="M2912 126 c-17 -19 -37 -53 -45 -77 l-15 -44 60 -3 c33 -2 61 -2 62
0 2 2 1 38 -2 81 -5 88 -13 94 -60 43z"/>
<path d="M8145 128 c4 -18 7 -46 6 -62 -2 -46 8 -66 35 -66 22 0 24 3 18 28
-4 15 -16 51 -26 80 -22 58 -45 72 -33 20z"/>
<path d="M3237 144 c-4 -4 -7 -20 -7 -36 0 -33 -17 -38 -23 -5 -3 17 -5 15 -6
-8 0 -17 4 -36 10 -42 9 -9 8 -16 -5 -28 -20 -20 -20 -25 -2 -25 7 0 16 9 19
20 6 23 37 27 37 6 0 -8 5 -18 10 -21 6 -4 10 5 10 19 0 16 -5 25 -12 24 -9
-2 -12 9 -10 35 3 38 -9 73 -21 61z"/>
<path d="M7 133 c-4 -3 -7 -35 -7 -70 l0 -63 50 0 49 0 -2 33 c-5 55 -67 124
-90 100z"/>
<path d="M4286 124 c-3 -9 -6 -30 -6 -47 l0 -32 19 35 c17 33 18 60 1 60 -4 0
-11 -7 -14 -16z"/>
<path d="M1273 71 c-27 -65 -25 -71 23 -71 39 0 44 2 44 23 0 13 -12 35 -28
49 l-28 25 -11 -26z"/>
<path d="M5824 89 c-4 -7 -10 -31 -11 -51 -4 -35 -2 -38 21 -38 30 0 34 20 12
70 -10 24 -15 29 -22 19z"/>
<path d="M1112 30 c0 -19 2 -27 5 -17 2 9 2 25 0 35 -3 9 -5 1 -5 -18z"/>
<path d="M4351 33 c-6 -14 -9 -28 -6 -31 3 -3 5 0 5 7 0 8 7 11 15 7 10 -3 15
1 15 14 0 30 -16 32 -29 3z"/>
<path d="M4190 15 c0 -8 5 -15 10 -15 6 0 10 7 10 15 0 8 -4 15 -10 15 -5 0
-10 -7 -10 -15z"/>
<path d="M10095 19 c-4 -6 -5 -13 -2 -16 7 -7 27 6 27 18 0 12 -17 12 -25 -2z"/>
<path d="M8510 10 c0 -5 5 -10 10 -10 6 0 10 5 10 10 0 6 -4 10 -10 10 -5 0
-10 -4 -10 -10z"/>
</g>
</svg>
